<?xml version="1.0" encoding="UTF-8" standalone="no"?>
<!-- Created with Inkscape (http://www.inkscape.org/) -->

<svg
   width="198.50911mm"
   height="206.00528mm"
   viewBox="0 0 198.50911 206.00528"
   version="1.1"
   id="svg38365"
   inkscape:version="1.2.1 (9c6d41e410, 2022-07-14)"
   sodipodi:docname="phoenix.svg"
   xmlns:inkscape="http://www.inkscape.org/namespaces/inkscape"
   xmlns:sodipodi="http://sodipodi.sourceforge.net/DTD/sodipodi-0.dtd"
   xmlns="http://www.w3.org/2000/svg"
   xmlns:svg="http://www.w3.org/2000/svg">
  <sodipodi:namedview
     id="namedview38367"
     pagecolor="#ffffff"
     bordercolor="#666666"
     borderopacity="1.0"
     inkscape:showpageshadow="2"
     inkscape:pageopacity="0.0"
     inkscape:pagecheckerboard="0"
     inkscape:deskcolor="#d1d1d1"
     inkscape:document-units="mm"
     showgrid="false"
     inkscape:zoom="0.99402667"
     inkscape:cx="346.06717"
     inkscape:cy="374.23543"
     inkscape:window-width="1920"
     inkscape:window-height="1014"
     inkscape:window-x="0"
     inkscape:window-y="0"
     inkscape:window-maximized="1"
     inkscape:current-layer="g39398" />
  <defs
     id="defs38362" />
  <g
     inkscape:label="Layer 1"
     inkscape:groupmode="layer"
     id="layer1"
     transform="translate(-13.617321,-28.964024)">
    <g
       id="g39398"
       transform="translate(9.9944005,-36.229518)">
      <path
         style="fill:none;stroke:#000000;stroke-width:0.1;stroke-linecap:round;stroke-linejoin:round;stroke-opacity:1;paint-order:stroke markers fill"
         id="path38901"
         sodipodi:type="arc"
         sodipodi:cx="96.631165"
         sodipodi:cy="114.10188"
         sodipodi:rx="76.829102"
         sodipodi:ry="37.165436"
         sodipodi:start="2.8872361"
         sodipodi:end="2.886859"
         sodipodi:open="true"
         sodipodi:arc-type="arc"
         d="M 22.274008,123.45355 A 76.829102,37.165436 0 0 1 77.292207,78.133112 76.829102,37.165436 0 0 1 170.98467,104.74343 76.829102,37.165436 0 0 1 115.98414,150.06889 76.829102,37.165436 0 0 1 22.281304,123.46711" />
      <path
         style="fill:none;stroke:#000000;stroke-width:0.1;stroke-linecap:round;stroke-linejoin:round;stroke-opacity:1;paint-order:stroke markers fill"
         id="path39280"
         sodipodi:type="arc"
         sodipodi:cx="96.631165"
         sodipodi:cy="128.97943"
         sodipodi:rx="76.829102"
         sodipodi:ry="37.165436"
         sodipodi:start="2.8872361"
         sodipodi:end="2.886859"
         sodipodi:open="true"
         sodipodi:arc-type="arc"
         d="M 22.274008,138.3311 A 76.829102,37.165436 0 0 1 77.292207,93.01066 76.829102,37.165436 0 0 1 170.98467,119.62098 76.829102,37.165436 0 0 1 115.98414,164.94644 76.829102,37.165436 0 0 1 22.281304,138.34466" />
      <path
         style="fill:none;stroke:#000000;stroke-width:0.1;stroke-linecap:round;stroke-linejoin:round;stroke-opacity:1;paint-order:stroke markers fill"
         id="path39298"
         sodipodi:type="arc"
         sodipodi:cx="96.631165"
         sodipodi:cy="143.85696"
         sodipodi:rx="76.829102"
         sodipodi:ry="37.165436"
         sodipodi:start="2.8872361"
         sodipodi:end="2.886859"
         sodipodi:open="true"
         sodipodi:arc-type="arc"
         d="M 22.274008,153.20863 A 76.829102,37.165436 0 0 1 77.292207,107.88819 76.829102,37.165436 0 0 1 170.98467,134.49851 76.829102,37.165436 0 0 1 115.98414,179.82397 76.829102,37.165436 0 0 1 22.281304,153.2222" />
      <path
         style="fill:none;stroke:#000000;stroke-width:0.0521136;stroke-linecap:round;stroke-linejoin:round;stroke-opacity:1;paint-order:stroke markers fill"
         id="path39300-5"
         sodipodi:type="arc"
         sodipodi:cx="96.631172"
         sodipodi:cy="149.14404"
         sodipodi:rx="19.086218"
         sodipodi:ry="40.630093"
         sodipodi:start="2.8872361"
         sodipodi:end="2.886859"
         sodipodi:open="true"
         sodipodi:arc-type="arc"
         d="m 78.159046,159.3675 a 19.086218,40.630093 0 0 1 13.667859,-49.54533 19.086218,40.630093 0 0 1 23.275485,29.091 19.086218,40.630093 0 0 1 -13.66347,49.55082 19.086218,40.630093 0 0 1 -23.278062,-29.08166" />
      <path
         style="fill:none;stroke:#000000;stroke-width:0.0521136;stroke-linecap:round;stroke-linejoin:round;stroke-opacity:1;paint-order:stroke markers fill"
         id="path39329"
         sodipodi:type="arc"
         sodipodi:cx="96.631172"
         sodipodi:cy="221.60013"
         sodipodi:rx="19.086218"
         sodipodi:ry="40.630093"
         sodipodi:start="2.8872361"
         sodipodi:end="2.886859"
         sodipodi:open="true"
         sodipodi:arc-type="arc"
         d="m 78.159046,231.82358 a 19.086218,40.630093 0 0 1 13.667859,-49.54532 19.086218,40.630093 0 0 1 23.275485,29.091 19.086218,40.630093 0 0 1 -13.66347,49.55081 19.086218,40.630093 0 0 1 -23.278062,-29.08166" />
      <path
         style="fill:none;fill-opacity:1;stroke:#b3b3b3;stroke-width:3;stroke-linecap:round;stroke-linejoin:round;stroke-dasharray:none;stroke-opacity:1;paint-order:stroke markers fill"
         id="path39400"
         sodipodi:type="arc"
         sodipodi:cx="96.631165"
         sodipodi:cy="135.40744"
         sodipodi:rx="43.099289"
         sodipodi:ry="43.099289"
         sodipodi:start="2.8872361"
         sodipodi:end="2.886859"
         sodipodi:open="true"
         sodipodi:arc-type="arc"
         d="M 54.918578,146.2522 A 43.099289,43.099289 0 0 1 85.782472,93.695876 43.099289,43.099289 0 0 1 138.34171,124.55482 43.099289,43.099289 0 0 1 107.48772,177.11696 43.099289,43.099289 0 0 1 54.92267,146.26793" />
      <rect
         style="fill:none;fill-opacity:1;stroke:#b3b3b3;stroke-width:3;stroke-linecap:round;stroke-linejoin:round;stroke-dasharray:none;stroke-opacity:1;paint-order:stroke markers fill"
         id="rect40935"
         width="2.4982326"
         height="2.4982326"
         x="5.122921"
         y="66.693542" />
      <rect
         style="fill:none;fill-opacity:1;stroke:#b3b3b3;stroke-width:3;stroke-linecap:round;stroke-linejoin:round;stroke-dasharray:none;stroke-opacity:1;paint-order:stroke markers fill"
         id="rect40937"
         width="2.4982326"
         height="2.4982326"
         x="198.1338"
         y="267.20059" />
      <path
         style="fill:none;stroke:#000000;stroke-width:0.1;stroke-linecap:round;stroke-linejoin:round;stroke-opacity:1;paint-order:stroke markers fill"
         id="path44584"
         sodipodi:type="arc"
         sodipodi:cx="97.513901"
         sodipodi:cy="158.73451"
         sodipodi:rx="76.829102"
         sodipodi:ry="37.165436"
         sodipodi:start="2.8872361"
         sodipodi:end="2.886859"
         sodipodi:open="true"
         sodipodi:arc-type="arc"
         d="m 23.156745,168.08618 a 76.829102,37.165436 0 0 1 55.018199,-45.32044 76.829102,37.165436 0 0 1 93.692466,26.61032 76.829102,37.165436 0 0 1 -55.00053,45.32546 76.829102,37.165436 0 0 1 -93.70284,-26.60178" />
      <path
         style="fill:none;stroke:#000000;stroke-width:0.0905749;stroke-linecap:round;stroke-linejoin:round;stroke-opacity:1;paint-order:stroke markers fill"
         id="path44584-9"
         sodipodi:type="arc"
         sodipodi:cx="96.631165"
         sodipodi:cy="165.55438"
         sodipodi:rx="41.058838"
         sodipodi:ry="57.052608"
         sodipodi:start="2.8872361"
         sodipodi:end="2.886859"
         sodipodi:open="true"
         sodipodi:arc-type="arc"
         d="M 56.893378,179.91011 A 41.058838,57.052608 0 0 1 86.296082,110.33877 41.058838,57.052608 0 0 1 136.367,151.18824 41.058838,57.052608 0 0 1 106.97374,220.76728 41.058838,57.052608 0 0 1 56.897277,179.93094" />
      <path
         style="fill:none;stroke:#000000;stroke-width:0.060131;stroke-linecap:round;stroke-linejoin:round;stroke-opacity:1;paint-order:stroke markers fill"
         id="path44586"
         sodipodi:type="arc"
         sodipodi:cx="51.327755"
         sodipodi:cy="115.02573"
         sodipodi:rx="31.556366"
         sodipodi:ry="32.717125"
         sodipodi:start="2.8872361"
         sodipodi:end="2.886859"
         sodipodi:open="true"
         sodipodi:arc-type="arc"
         d="M 20.786702,123.2581 A 31.556366,32.717125 0 0 1 43.384577,83.362038 31.556366,32.717125 0 0 1 81.86731,106.78738 31.556366,32.717125 0 0 1 59.276691,146.68786 31.556366,32.717125 0 0 1 20.789699,123.27004" />
      <path
         style="fill:none;stroke:#000000;stroke-width:0.060131;stroke-linecap:round;stroke-linejoin:round;stroke-opacity:1;paint-order:stroke markers fill"
         id="path44588"
         sodipodi:type="arc"
         sodipodi:cx="141.87138"
         sodipodi:cy="115.02573"
         sodipodi:rx="31.556366"
         sodipodi:ry="32.717125"
         sodipodi:start="2.8872361"
         sodipodi:end="2.886859"
         sodipodi:open="true"
         sodipodi:arc-type="arc"
         d="m 111.33033,123.2581 a 31.556366,32.717125 0 0 1 22.59788,-39.896062 31.556366,32.717125 0 0 1 38.48273,23.425342 31.556366,32.717125 0 0 1 -22.59062,39.90048 31.556366,32.717125 0 0 1 -38.48699,-23.41782" />
    </g>
  </g>
</svg>
