<?xml version="1.0" encoding="UTF-8" standalone="no"?>
<!-- Created with Inkscape (http://www.inkscape.org/) -->

<svg
   width="198.50911mm"
   height="206.00528mm"
   viewBox="0 0 198.50911 206.00528"
   version="1.1"
   id="svg38365"
   inkscape:version="1.2.1 (9c6d41e410, 2022-07-14)"
   sodipodi:docname="phoenix.svg"
   xmlns:inkscape="http://www.inkscape.org/namespaces/inkscape"
   xmlns:sodipodi="http://sodipodi.sourceforge.net/DTD/sodipodi-0.dtd"
   xmlns="http://www.w3.org/2000/svg"
   xmlns:svg="http://www.w3.org/2000/svg">
  <sodipodi:namedview
     id="namedview38367"
     pagecolor="#ffffff"
     bordercolor="#666666"
     borderopacity="1.0"
     inkscape:showpageshadow="2"
     inkscape:pageopacity="0.0"
     inkscape:pagecheckerboard="0"
     inkscape:deskcolor="#d1d1d1"
     inkscape:document-units="mm"
     showgrid="false"
     inkscape:zoom="1.9880533"
     inkscape:cx="346.06717"
     inkscape:cy="293.75469"
     inkscape:window-width="1920"
     inkscape:window-height="1014"
     inkscape:window-x="0"
     inkscape:window-y="0"
     inkscape:window-maximized="1"
     inkscape:current-layer="layer2" />
  <defs
     id="defs38362" />
  <g
     inkscape:label="Layer 1"
     inkscape:groupmode="layer"
     id="layer1"
     transform="translate(-13.617321,-28.964024)"
     sodipodi:insensitive="true">
    <g
       id="g39398"
       transform="translate(9.9944005,-36.229518)">
      <path
         style="fill:none;stroke:#000000;stroke-width:0.1;stroke-linecap:round;stroke-linejoin:round;stroke-opacity:1;paint-order:stroke markers fill"
         id="path38901"
         sodipodi:type="arc"
         sodipodi:cx="96.631165"
         sodipodi:cy="114.10188"
         sodipodi:rx="76.829102"
         sodipodi:ry="37.165436"
         sodipodi:start="2.8872361"
         sodipodi:end="2.886859"
         sodipodi:open="true"
         sodipodi:arc-type="arc"
         d="M 22.274008,123.45355 A 76.829102,37.165436 0 0 1 77.292207,78.133112 76.829102,37.165436 0 0 1 170.98467,104.74343 76.829102,37.165436 0 0 1 115.98414,150.06889 76.829102,37.165436 0 0 1 22.281304,123.46711" />
      <path
         style="fill:none;stroke:#000000;stroke-width:0.1;stroke-linecap:round;stroke-linejoin:round;stroke-opacity:1;paint-order:stroke markers fill"
         id="path39280"
         sodipodi:type="arc"
         sodipodi:cx="96.631165"
         sodipodi:cy="128.97943"
         sodipodi:rx="76.829102"
         sodipodi:ry="37.165436"
         sodipodi:start="2.8872361"
         sodipodi:end="2.886859"
         sodipodi:open="true"
         sodipodi:arc-type="arc"
         d="M 22.274008,138.3311 A 76.829102,37.165436 0 0 1 77.292207,93.01066 76.829102,37.165436 0 0 1 170.98467,119.62098 76.829102,37.165436 0 0 1 115.98414,164.94644 76.829102,37.165436 0 0 1 22.281304,138.34466" />
      <path
         style="fill:none;stroke:#000000;stroke-width:0.1;stroke-linecap:round;stroke-linejoin:round;stroke-opacity:1;paint-order:stroke markers fill"
         id="path39298"
         sodipodi:type="arc"
         sodipodi:cx="96.631165"
         sodipodi:cy="143.85696"
         sodipodi:rx="76.829102"
         sodipodi:ry="37.165436"
         sodipodi:start="2.8872361"
         sodipodi:end="2.886859"
         sodipodi:open="true"
         sodipodi:arc-type="arc"
         d="M 22.274008,153.20863 A 76.829102,37.165436 0 0 1 77.292207,107.88819 76.829102,37.165436 0 0 1 170.98467,134.49851 76.829102,37.165436 0 0 1 115.98414,179.82397 76.829102,37.165436 0 0 1 22.281304,153.2222" />
      <path
         style="fill:none;stroke:#000000;stroke-width:0.0521136;stroke-linecap:round;stroke-linejoin:round;stroke-opacity:1;paint-order:stroke markers fill"
         id="path39300-5"
         sodipodi:type="arc"
         sodipodi:cx="96.631172"
         sodipodi:cy="149.14404"
         sodipodi:rx="19.086218"
         sodipodi:ry="40.630093"
         sodipodi:start="2.8872361"
         sodipodi:end="2.886859"
         sodipodi:open="true"
         sodipodi:arc-type="arc"
         d="m 78.159046,159.3675 a 19.086218,40.630093 0 0 1 13.667859,-49.54533 19.086218,40.630093 0 0 1 23.275485,29.091 19.086218,40.630093 0 0 1 -13.66347,49.55082 19.086218,40.630093 0 0 1 -23.278062,-29.08166" />
      <path
         style="fill:none;stroke:#000000;stroke-width:0.0521136;stroke-linecap:round;stroke-linejoin:round;stroke-opacity:1;paint-order:stroke markers fill"
         id="path39329"
         sodipodi:type="arc"
         sodipodi:cx="96.631172"
         sodipodi:cy="221.60013"
         sodipodi:rx="19.086218"
         sodipodi:ry="40.630093"
         sodipodi:start="2.8872361"
         sodipodi:end="2.886859"
         sodipodi:open="true"
         sodipodi:arc-type="arc"
         d="m 78.159046,231.82358 a 19.086218,40.630093 0 0 1 13.667859,-49.54532 19.086218,40.630093 0 0 1 23.275485,29.091 19.086218,40.630093 0 0 1 -13.66347,49.55081 19.086218,40.630093 0 0 1 -23.278062,-29.08166" />
      <path
         style="fill:none;fill-opacity:1;stroke:#b3b3b3;stroke-width:3;stroke-linecap:round;stroke-linejoin:round;stroke-dasharray:none;stroke-opacity:1;paint-order:stroke markers fill"
         id="path39400"
         sodipodi:type="arc"
         sodipodi:cx="96.631165"
         sodipodi:cy="135.40744"
         sodipodi:rx="43.099289"
         sodipodi:ry="43.099289"
         sodipodi:start="2.8872361"
         sodipodi:end="2.886859"
         sodipodi:open="true"
         sodipodi:arc-type="arc"
         d="M 54.918578,146.2522 A 43.099289,43.099289 0 0 1 85.782472,93.695876 43.099289,43.099289 0 0 1 138.34171,124.55482 43.099289,43.099289 0 0 1 107.48772,177.11696 43.099289,43.099289 0 0 1 54.92267,146.26793" />
      <rect
         style="fill:none;fill-opacity:1;stroke:#b3b3b3;stroke-width:3;stroke-linecap:round;stroke-linejoin:round;stroke-dasharray:none;stroke-opacity:1;paint-order:stroke markers fill"
         id="rect40935"
         width="2.4982326"
         height="2.4982326"
         x="5.122921"
         y="66.693542" />
      <rect
         style="fill:none;fill-opacity:1;stroke:#b3b3b3;stroke-width:3;stroke-linecap:round;stroke-linejoin:round;stroke-dasharray:none;stroke-opacity:1;paint-order:stroke markers fill"
         id="rect40937"
         width="2.4982326"
         height="2.4982326"
         x="198.1338"
         y="267.20059" />
      <path
         style="fill:none;stroke:#000000;stroke-width:0.1;stroke-linecap:round;stroke-linejoin:round;stroke-opacity:1;paint-order:stroke markers fill"
         id="path44584"
         sodipodi:type="arc"
         sodipodi:cx="97.513901"
         sodipodi:cy="158.73451"
         sodipodi:rx="76.829102"
         sodipodi:ry="37.165436"
         sodipodi:start="2.8872361"
         sodipodi:end="2.886859"
         sodipodi:open="true"
         sodipodi:arc-type="arc"
         d="m 23.156745,168.08618 a 76.829102,37.165436 0 0 1 55.018199,-45.32044 76.829102,37.165436 0 0 1 93.692466,26.61032 76.829102,37.165436 0 0 1 -55.00053,45.32546 76.829102,37.165436 0 0 1 -93.70284,-26.60178" />
      <path
         style="fill:none;stroke:#000000;stroke-width:0.0905749;stroke-linecap:round;stroke-linejoin:round;stroke-opacity:1;paint-order:stroke markers fill"
         id="path44584-9"
         sodipodi:type="arc"
         sodipodi:cx="96.631165"
         sodipodi:cy="165.55438"
         sodipodi:rx="41.058838"
         sodipodi:ry="57.052608"
         sodipodi:start="2.8872361"
         sodipodi:end="2.886859"
         sodipodi:open="true"
         sodipodi:arc-type="arc"
         d="M 56.893378,179.91011 A 41.058838,57.052608 0 0 1 86.296082,110.33877 41.058838,57.052608 0 0 1 136.367,151.18824 41.058838,57.052608 0 0 1 106.97374,220.76728 41.058838,57.052608 0 0 1 56.897277,179.93094" />
      <path
         style="fill:none;stroke:#000000;stroke-width:0.060131;stroke-linecap:round;stroke-linejoin:round;stroke-opacity:1;paint-order:stroke markers fill"
         id="path44586"
         sodipodi:type="arc"
         sodipodi:cx="51.327755"
         sodipodi:cy="115.02573"
         sodipodi:rx="31.556366"
         sodipodi:ry="32.717125"
         sodipodi:start="2.8872361"
         sodipodi:end="2.886859"
         sodipodi:open="true"
         sodipodi:arc-type="arc"
         d="M 20.786702,123.2581 A 31.556366,32.717125 0 0 1 43.384577,83.362038 31.556366,32.717125 0 0 1 81.86731,106.78738 31.556366,32.717125 0 0 1 59.276691,146.68786 31.556366,32.717125 0 0 1 20.789699,123.27004" />
      <path
         style="fill:none;stroke:#000000;stroke-width:0.060131;stroke-linecap:round;stroke-linejoin:round;stroke-opacity:1;paint-order:stroke markers fill"
         id="path44588"
         sodipodi:type="arc"
         sodipodi:cx="141.87138"
         sodipodi:cy="115.02573"
         sodipodi:rx="31.556366"
         sodipodi:ry="32.717125"
         sodipodi:start="2.8872361"
         sodipodi:end="2.886859"
         sodipodi:open="true"
         sodipodi:arc-type="arc"
         d="m 111.33033,123.2581 a 31.556366,32.717125 0 0 1 22.59788,-39.896062 31.556366,32.717125 0 0 1 38.48273,23.425342 31.556366,32.717125 0 0 1 -22.59062,39.90048 31.556366,32.717125 0 0 1 -38.48699,-23.41782" />
    </g>
  </g>
  <g
     inkscape:groupmode="layer"
     id="layer2"
     inkscape:label="Layer 2">
    <path
       style="fill:#d8ce27;fill-opacity:1;stroke:#000000;stroke-width:0.264583px;stroke-linecap:butt;stroke-linejoin:miter;stroke-opacity:1"
       d="M 54.376248,81.033593 C 46.384123,79.7098 38.834295,75.88574 32.017321,71.509058 26.369552,67.883037 17.132117,57.950348 17.132117,57.950348 c 0,0 -0.847362,10.683348 1.518971,15.187207 4.045292,7.699432 12.398847,11.612409 19.906718,16.868116 L 16.195767,77.890295 c 0,0 3.403982,11.932444 7.263246,16.564274 4.167552,5.001833 10.395312,7.952081 16.178184,10.942931 4.092223,2.11646 12.935894,4.86765 12.935894,4.86765 L 19.541119,102.9062 c 0,0 7.601525,9.34482 12.510222,12.6892 7.267078,4.95118 15.510954,9.48121 24.260207,10.36166 9.500684,0.95607 28.057422,-5.77708 28.057422,-5.77708 0,0 -4.462856,6.23848 -5.847408,9.77335 -2.614359,6.67466 -3.944205,13.89211 -4.429628,21.04406 -0.512329,7.54836 -0.117945,15.27771 1.631119,22.63848 1.439124,6.05641 7.180485,17.23954 7.180485,17.23954 l 2.631614,-34.41492 -0.148807,37.19587 7.134997,3.3671 -0.469141,-147.519103 c 0,0 -5.491743,4.132041 -6.929048,7.113985 -1.431251,2.969385 -0.0066,6.75495 -1.243333,9.810488 -2.053376,5.073334 -5.046081,10.510383 -9.846442,13.139378 -5.762898,3.156144 -13.174892,2.539085 -19.65713,1.465385 z"
       id="path308"
       sodipodi:nodetypes="aacaccaaccaacaaacccccaaaa" />
    <path
       style="fill:#d8ce27;fill-opacity:1;stroke:#000000;stroke-width:0.264583px;stroke-linecap:butt;stroke-linejoin:miter;stroke-opacity:1"
       d="m 131.6427,81.032861 c 7.99213,-1.323793 15.54195,-5.147853 22.35893,-9.524535 5.64777,-3.626021 14.8852,-13.55871 14.8852,-13.55871 0,0 0.84736,10.683348 -1.51897,15.187207 -4.04529,7.699432 -12.39885,11.612409 -19.90672,16.868116 l 22.36204,-12.115376 c 0,0 -3.40398,11.932444 -7.26324,16.564274 -4.16756,5.001833 -10.39532,7.952083 -16.17819,10.942933 -4.09222,2.11646 -12.93589,4.86765 -12.93589,4.86765 l 33.03197,-7.35895 c 0,0 -7.60153,9.34482 -12.51022,12.6892 -7.26708,4.95118 -15.51096,9.48121 -24.26021,10.36166 -9.50068,0.95607 -28.05742,-5.77708 -28.05742,-5.77708 0,0 4.46285,6.23848 5.84741,9.77335 2.61436,6.67466 3.9442,13.89211 4.42962,21.04406 0.51233,7.54836 0.11795,15.27771 -1.63111,22.63848 -1.43913,6.05641 -7.18049,17.23954 -7.18049,17.23954 l -2.63161,-34.41492 0.1488,37.19587 -8.111214,3.36696 -0.469185,-147.518233 c 0,0 17.486959,-13.252852 3.129755,0.935635 12.387634,-8.268387 -6.527468,5.9575 5.852444,20.846808 3.53246,4.248486 6.66953,6.664576 10.95116,8.280676 6.14725,2.320272 13.17489,2.539085 19.65713,1.465385 z"
       id="path1014"
       sodipodi:nodetypes="aacaccaaccaacaaaccccccsaaa" />
  </g>
</svg>
