<?xml version="1.0" encoding="UTF-8" standalone="no"?>
<!-- Created with Inkscape (http://www.inkscape.org/) -->

<svg
   xmlns:dc="http://purl.org/dc/elements/1.1/"
   xmlns:cc="http://creativecommons.org/ns#"
   xmlns:rdf="http://www.w3.org/1999/02/22-rdf-syntax-ns#"
   xmlns:svg="http://www.w3.org/2000/svg"
   xmlns="http://www.w3.org/2000/svg"
   xmlns:sodipodi="http://sodipodi.sourceforge.net/DTD/sodipodi-0.dtd"
   xmlns:inkscape="http://www.inkscape.org/namespaces/inkscape"
   width="58.218586mm"
   height="23.191629mm"
   viewBox="0 0 58.218586 23.191629"
   version="1.1"
   id="svg4817"
   inkscape:version="0.92.3 (2405546, 2018-03-11)"
   sodipodi:docname="logo.svg">
  <defs
     id="defs4811" />
  <sodipodi:namedview
     id="base"
     pagecolor="#ffffff"
     bordercolor="#666666"
     borderopacity="1.0"
     inkscape:pageopacity="0.0"
     inkscape:pageshadow="2"
     inkscape:zoom="2.8"
     inkscape:cx="15.896248"
     inkscape:cy="-6.3319623"
     inkscape:document-units="mm"
     inkscape:current-layer="layer1"
     showgrid="false"
     inkscape:window-width="1920"
     inkscape:window-height="988"
     inkscape:window-x="1280"
     inkscape:window-y="25"
     inkscape:window-maximized="1"
     inkscape:pagecheckerboard="false"
     fit-margin-top="0"
     fit-margin-left="0"
     fit-margin-right="0"
     fit-margin-bottom="0" />
  <metadata
     id="metadata4814">
    <rdf:RDF>
      <cc:Work
         rdf:about="">
        <dc:format>image/svg+xml</dc:format>
        <dc:type
           rdf:resource="http://purl.org/dc/dcmitype/StillImage" />
        <dc:title></dc:title>
      </cc:Work>
    </rdf:RDF>
  </metadata>
  <g
     inkscape:label="Layer 1"
     inkscape:groupmode="layer"
     id="layer1"
     transform="translate(-84.283556,-45.767278)">
    <g
       id="g5393">
      <text
         y="-15.291094"
         x="15.209548"
         id="text158"
         class="TextShape"
         style="font-size:0.12000001px;stroke-width:0.01">
        <tspan
           style="font-weight:400;font-size:12.70000076px;font-family:GreatLakesNF;stroke-width:0.01"
           id="tspan156"
           font-weight="400"
           font-size="1270px"
           class="TextParagraph">
          <tspan
             id="tspan154"
             y="68.958908"
             x="84.029556"
             class="TextPosition"
             style="stroke-width:0.01">
            <tspan
               style="fill:#666666;stroke:none;stroke-width:0.01"
               id="tspan150">Fading</tspan>
            <tspan
               style="fill:#000000;stroke:none;stroke-width:0.01"
               id="tspan152">SunS</tspan>
          </tspan>
        </tspan>
      </text>
      <g
         transform="matrix(0.01,0,0,0.01,10.894734,-14.542722)"
         id="g182"
         class="com.sun.star.drawing.ClosedBezierShape">
        <g
           id="id7">
          <rect
             style="fill:none;stroke:none"
             id="rect177"
             height="1356"
             width="5295"
             y="6031"
             x="7602"
             class="BoundingBox" />
          <path
             style="fill:#000000;stroke:none"
             inkscape:connector-curvature="0"
             id="path179"
             d="m 10414,6031 c -6,11 -19,30 -37,56 -18,26 -27,45 -27,57 0,14 6,26 17,35 11,9 27,13 47,13 9,-5 18,-11 26,-16 8,-5 14,-13 18,-21 4,-8 8,-13 10,-13 0,7 1,13 2,20 -1,16 -3,26 -7,32 -12,9 -26,19 -41,29 -15,10 -22,23 -22,37 0,7 2,13 5,17 3,4 8,8 13,11 5,3 7,7 6,10 -3,-1 -6,1 -7,6 -1,5 -1,9 0,13 0,10 8,22 23,35 15,13 22,23 21,28 -8,2 -13,3 -16,4 -3,1 -5,1 -7,2 12,14 30,27 53,38 23,11 43,18 60,18 51,0 93,-7 127,-22 34,-15 54,-44 61,-90 3,-20 -6,-50 -28,-89 -22,-39 -34,-65 -34,-77 0,-8 2,-17 5,-27 2,-16 7,-27 15,-35 8,-8 20,-14 35,-21 15,-7 25,-10 31,-10 7,0 11,4 13,10 -3,-1 -8,2 -14,8 -6,6 -9,14 -9,23 -3,20 4,36 24,47 20,11 40,16 64,16 l -2,-12 c 1,-8 5,-12 12,-12 3,0 9,4 18,12 9,8 19,16 28,24 40,21 114,37 220,48 106,11 229,18 370,22 141,4 267,6 378,6 h 176 c 36,0 95,-3 178,-9 83,-6 135,-10 157,-10 98,16 193,30 283,42 90,12 169,19 237,19 -21,3 -44,6 -67,7 -23,1 -49,1 -77,1 -48,0 -117,-2 -206,-7 -89,-5 -140,-8 -153,-8 -26,0 -55,8 -89,25 -34,17 -50,31 -50,43 0,12 18,17 53,17 115,0 205,4 269,11 64,7 127,29 188,65 10,4 19,7 26,11 7,4 12,8 13,13 -55,-8 -112,-16 -171,-25 -59,-9 -110,-14 -152,-14 -32,0 -62,2 -90,6 -28,4 -58,11 -90,20 0,10 12,21 37,33 25,12 38,25 38,37 -60,-17 -110,-29 -150,-38 -40,-9 -82,-14 -125,-14 -18,0 -36,2 -53,4 -17,2 -26,7 -26,11 0,4 13,8 39,11 26,3 58,14 96,28 38,14 67,26 85,33 18,7 55,13 112,16 57,3 87,12 93,29 -29,7 -120,19 -275,37 -155,18 -232,39 -232,63 0,7 7,17 21,30 14,13 62,31 146,55 84,24 138,61 162,110 l 8,1 c -11,0 -27,-3 -48,-9 -21,-6 -39,-12 -54,-16 -15,-4 -41,-8 -78,-10 -37,-2 -72,-4 -106,-4 h -29 c -38,0 -86,2 -144,5 -58,3 -91,4 -99,4 -21,0 -41,-1 -62,-2 -21,-1 -41,-4 -61,-8 -20,-4 -41,-9 -63,-15 -22,-6 -41,-9 -58,-9 -27,0 -46,8 -58,25 -10,15 1,31 33,48 37,15 75,31 113,45 -5,0 -13,0 -25,-1 -12,-1 -41,-4 -89,-11 -38,-10 -66,-17 -84,-22 -18,-5 -36,-9 -54,-15 -5,6 -7,13 -7,21 0,15 11,33 33,53 22,20 40,31 53,35 0,-4 1,-7 2,-11 1,-4 3,-7 5,-11 11,6 28,13 49,19 21,6 40,10 55,12 15,2 28,3 37,3 9,0 18,1 25,1 12,0 32,-1 58,-2 26,-1 46,-1 59,-1 -3,13 -41,27 -116,41 -75,14 -126,21 -153,21 -64,0 -114,-5 -152,-15 -38,-10 -62,-30 -74,-60 -12,-30 -19,-49 -25,-58 -6,-9 -12,-13 -19,-11 -13,5 -20,16 -20,33 0,12 3,27 10,44 7,17 13,29 17,38 1,13 0,32 -2,58 -2,26 -9,39 -18,39 -22,-42 -75,-75 -159,-98 -84,-23 -130,-45 -136,-64 1,-2 17,1 48,9 31,8 52,13 66,13 17,0 25,-4 25,-13 -4,-22 -35,-51 -92,-87 -57,-36 -97,-58 -120,-67 -23,-9 -48,-12 -77,-12 -21,0 -37,2 -50,6 -13,4 -21,11 -23,21 -8,13 -4,30 11,51 15,21 28,38 39,54 11,16 25,43 42,83 17,40 25,73 25,101 -22,-9 -42,-17 -60,-23 -18,-6 -32,-11 -39,-11 -6,0 -11,3 -15,7 -3,7 -2,19 4,37 6,18 11,33 16,48 5,15 7,33 7,55 0,8 0,14 -1,17 -14,-26 -28,-45 -42,-57 -14,-12 -33,-19 -55,-19 -15,-2 -29,11 -44,38 -15,27 -27,54 -38,77 -8,8 -16,17 -23,26 -7,9 -13,16 -19,23 l -3,-7 c -15,-38 -27,-62 -36,-72 -9,-10 -28,-23 -59,-39 -6,-6 -15,-9 -26,-9 -17,0 -28,5 -31,14 -4,3 -6,11 -9,22 -3,11 -3,27 -3,47 -27,0 -49,-20 -65,-61 -16,-41 -31,-81 -42,-122 -5,-4 -13,-6 -24,-6 -16,0 -28,10 -35,31 -7,21 -10,44 -10,70 -8,0 -15,-10 -21,-31 -6,-21 -8,-44 -8,-69 0,-29 5,-50 15,-62 9,-15 14,-24 14,-27 -8,-13 -18,-19 -29,-19 -9,0 -18,4 -27,13 -9,9 -19,19 -31,33 6,-50 22,-92 50,-126 12,-7 23,-15 32,-22 9,-7 15,-15 18,-27 3,-18 -6,-30 -26,-38 -20,-8 -45,-11 -77,-11 -47,0 -80,5 -98,15 -24,11 -50,24 -80,42 -30,18 -44,41 -44,72 23,17 50,25 83,25 13,0 24,-1 34,-5 -1,7 -6,15 -13,24 -7,9 -18,16 -30,22 -12,6 -26,8 -43,8 -13,0 -26,-1 -39,-3 -13,-2 -34,-5 -60,-8 -26,-3 -54,-6 -82,-6 -16,0 -32,0 -48,0 -17,4 -33,7 -48,9 -15,2 -31,11 -47,26 -16,15 -32,31 -47,47 10,-53 54,-94 132,-122 78,-28 115,-49 112,-61 -5,-15 -16,-25 -35,-31 -19,-6 -43,-10 -74,-10 -37,0 -72,3 -105,10 -33,7 -59,12 -79,19 -16,11 -25,22 -27,32 17,7 31,12 42,15 11,3 25,4 41,4 0,2 0,4 1,5 -10,4 -21,12 -33,22 -12,10 -25,21 -39,32 -14,11 -32,24 -51,37 -19,13 -39,25 -58,35 -19,10 -34,16 -44,19 -4,0 -8,0 -12,0 0,-1 8,-12 22,-34 14,-22 21,-40 19,-54 -1,-11 -8,-16 -22,-16 -7,0 -12,1 -17,3 l -118,12 c -48,0 -98,13 -150,40 -52,27 -78,43 -77,49 30,-45 67,-82 111,-112 44,-30 89,-60 134,-89 13,-12 17,-25 14,-39 -2,-10 -16,-18 -42,-24 -26,-6 -55,-8 -89,-8 -37,0 -68,2 -92,6 -24,4 -44,11 -59,22 -15,11 -23,20 -23,28 0,9 13,18 40,26 27,8 39,15 38,20 l -68,25 h -81 c -34,0 -76,-1 -127,-3 -51,-2 -77,-2 -78,-2 -36,0 -69,1 -99,3 -30,2 -56,7 -80,13 -24,6 -41,11 -55,14 0,-32 30,-66 90,-100 60,-34 121,-70 185,-106 0,-10 -8,-18 -24,-24 -16,-6 -39,-8 -69,-8 -18,0 -38,-1 -59,-2 -21,-1 -41,-2 -60,-3 -60,0 -108,6 -146,20 -38,14 -55,40 -55,79 h -9 c 6,-61 38,-104 96,-131 58,-27 113,-51 165,-75 9,-11 15,-19 17,-22 0,-2 0,-5 0,-9 v -8 c -7,1 -21,5 -42,12 -21,7 -39,12 -56,17 -17,5 -31,8 -41,10 -10,2 -21,3 -34,3 -11,0 -28,-1 -51,-5 -23,-4 -40,-5 -52,-5 -9,0 -16,0 -20,0 h -17 c -13,5 -25,9 -38,12 0,-29 -8,-51 -24,-64 -16,-13 -39,-19 -69,-19 -33,0 -65,5 -96,14 -31,9 -75,25 -131,45 0,-27 42,-59 126,-96 84,-37 170,-72 255,-105 -11,12 -17,24 -17,34 0,10 6,18 18,23 12,5 27,9 45,9 34,0 65,-9 95,-26 30,-17 42,-38 37,-66 -4,-24 -30,-42 -78,-54 -48,-12 -109,-17 -184,-17 -83,0 -168,6 -256,16 -88,10 -152,23 -193,37 40,-42 116,-71 229,-87 113,-16 252,-25 418,-25 89,0 211,2 366,6 155,4 250,6 284,6 140,0 246,-7 318,-20 72,-13 108,-37 108,-73 0,-5 -1,-11 -3,-20 -9,-6 -17,-12 -25,-19 115,-27 230,-54 345,-81 59,0 108,12 149,37 8,8 18,17 30,29 12,12 20,17 26,17 4,0 6,-3 6,-9 0,-6 -2,-14 -6,-25 l -10,-24 c 4,-6 10,-6 18,-3 8,3 16,11 25,20 9,9 15,22 19,39 4,17 5,38 5,63 0,24 1,45 3,62 2,17 5,32 11,46 10,31 27,55 52,70 25,15 51,23 80,23 19,0 45,-5 76,-14 31,-9 57,-20 75,-30 18,-10 34,-36 47,-76 4,-7 5,-14 5,-21 0,-21 -9,-32 -29,-32 -5,0 -11,2 -18,5 -5,5 -9,9 -12,12 l -7,-1 c -3,-7 -5,-17 -5,-31 0,-7 2,-13 5,-19 4,-10 10,-18 20,-24 10,-6 19,-13 29,-20 l 51,-57 c 17,-18 38,-37 62,-57 24,-20 46,-34 64,-43 z m -132,171 c -6,4 -9,8 -11,11 -2,3 -3,5 -3,6 12,2 20,2 24,0 2,-1 4,-4 4,-7 0,-3 2,-7 3,-10 -9,-2 -15,-3 -19,-2 z m 274,882 39,19 1,-68 -1,-70 -39,19 c -10,-34 -26,-62 -48,-85 -22,-23 -49,-39 -82,-47 l 19,-37 h -70 -69 l 18,37 c -67,18 -109,64 -125,139 l -44,-26 1,70 -1,68 44,-19 c 12,70 54,116 125,139 l -18,30 h 69 70 l -14,-30 z m -149,88 -32,-56 -32,56 c -25,-5 -47,-17 -65,-38 -18,-21 -30,-46 -35,-75 l 51,-24 -49,-26 c 11,-58 46,-96 105,-113 l 25,56 26,-58 c 28,7 51,21 71,41 20,20 31,45 35,74 l -51,26 58,24 c -7,30 -20,55 -39,76 -19,21 -42,32 -68,37 z" />
        </g>
      </g>
    </g>
  </g>
</svg>
